<svg xmlns="http://www.w3.org/2000/svg" xmlns:xlink="http://www.w3.org/1999/xlink" width="50" zoomAndPan="magnify" viewBox="0 0 37.5 37.499999" height="50" preserveAspectRatio="xMidYMid meet" version="1.0"><defs><clipPath id="18f584de07"><path d="M 7.195312 2.8125 L 30.445312 2.8125 L 30.445312 35.0625 L 7.195312 35.0625 Z M 7.195312 2.8125 " clip-rule="nonzero"/></clipPath></defs><g clip-path="url(#18f584de07)"><path fill="#ffffff" d="M 16.960938 29.042969 C 16.507812 27.710938 15.675781 26.539062 14.566406 25.675781 L 11.84375 23.546875 C 9.046875 21.367188 7.347656 18.054688 7.199219 14.496094 C 7.199219 8.042969 12.402344 2.8125 18.820312 2.8125 C 25.238281 2.8125 30.4375 8.042969 30.4375 14.496094 C 30.292969 18.054688 28.59375 21.367188 25.796875 23.546875 L 23.074219 25.675781 C 21.964844 26.539062 21.132812 27.710938 20.679688 29.042969 L 20.359375 29.984375 C 20.132812 30.644531 19.515625 31.089844 18.820312 31.089844 C 18.125 31.089844 17.507812 30.644531 17.28125 29.984375 Z M 18.820312 35.0625 C 16.253906 35.0625 14.171875 34.75 14.171875 34.363281 C 14.171875 33.972656 16.253906 33.660156 18.820312 33.660156 C 21.386719 33.660156 23.46875 33.972656 23.46875 34.363281 C 23.46875 34.75 21.386719 35.0625 18.820312 35.0625 Z M 18.820312 23.613281 C 23.953125 23.613281 28.117188 19.425781 28.117188 14.261719 C 28.117188 9.101562 23.953125 4.914062 18.820312 4.914062 C 13.6875 4.914062 9.523438 9.101562 9.523438 14.261719 C 9.523438 19.425781 13.6875 23.613281 18.820312 23.613281 Z M 17.128906 13.457031 L 17.546875 20.773438 C 17.574219 21.210938 17.105469 21.585938 16.578125 21.609375 C 16.050781 21.632812 15.542969 21.300781 15.519531 20.863281 C 15.519531 20.835938 15.519531 20.804688 15.519531 20.773438 L 15.941406 13.457031 C 15.195312 13.292969 14.871094 12.625 14.871094 11.824219 L 14.871094 8.023438 C 14.871094 7.855469 15.003906 7.71875 15.171875 7.71875 C 15.339844 7.71875 15.472656 7.855469 15.472656 8.023438 L 15.472656 11.121094 C 15.472656 11.207031 15.542969 11.273438 15.625 11.273438 C 15.710938 11.273438 15.777344 11.207031 15.777344 11.121094 L 15.777344 8.023438 C 15.777344 7.855469 15.914062 7.71875 16.078125 7.71875 C 16.246094 7.71875 16.382812 7.855469 16.382812 8.023438 L 16.382812 11.121094 C 16.382812 11.207031 16.449219 11.273438 16.535156 11.273438 C 16.617188 11.273438 16.6875 11.207031 16.6875 11.121094 L 16.6875 8.023438 C 16.6875 7.855469 16.820312 7.71875 16.988281 7.71875 C 17.15625 7.71875 17.289062 7.855469 17.289062 8.023438 L 17.289062 11.121094 C 17.289062 11.207031 17.359375 11.273438 17.441406 11.273438 C 17.527344 11.273438 17.59375 11.207031 17.59375 11.121094 L 17.59375 8.023438 C 17.59375 7.855469 17.730469 7.71875 17.898438 7.71875 C 18.0625 7.71875 18.199219 7.855469 18.199219 8.023438 L 18.199219 11.824219 C 18.199219 12.625 17.871094 13.292969 17.128906 13.457031 Z M 23.003906 15.40625 L 23.003906 20.644531 C 23.003906 21.175781 22.523438 21.609375 21.933594 21.609375 C 21.34375 21.609375 20.863281 21.179688 20.863281 20.644531 L 20.863281 15.835938 L 20.164062 15.605469 L 20.164062 10.488281 C 20.164062 8.960938 21.308594 7.71875 23.003906 7.71875 Z M 23.003906 15.40625 " fill-opacity="1" fill-rule="nonzero"/></g></svg>